<svg width="147" height="260" viewBox="0 0 147 260" fill="none" xmlns="http://www.w3.org/2000/svg">
<g clip-path="url(#clip0_856_572)">
<path d="M29.494 233.975C29.494 233.975 61.665 250.606 74.5793 256.708C87.4761 262.801 81.5735 232.642 73.996 213.223C66.4358 193.813 39.2301 220.87 29.5549 226.001C19.8709 231.15 27.1045 232.77 29.494 233.975Z" fill="#668BD3"/>
</g>
<g clip-path="url(#clip1_856_572)">
<path d="M4.29866 24.9353C4.29866 24.9353 9.53062 47.9928 14.8808 58.523C20.2311 69.0532 43.3522 55.6607 53.1838 51.541C63.0155 47.4213 48.882 12.1602 43.7719 5.61802C38.6916 -0.908635 0.854528 11.486 4.29866 24.9353Z" fill="#728ABC"/>
</g>
<g clip-path="url(#clip2_856_572)">
<path d="M119.091 143.129C119.049 143.081 118.999 143.024 118.967 142.968C117.905 141.573 118.183 139.583 119.583 138.515C119.622 138.482 124.265 134.91 127.88 130.099C132.131 124.448 133.077 119.792 130.691 116.256C128.305 112.719 125.468 110.819 122.027 110.436C113.195 109.468 103.333 118.625 103.235 118.727C101.951 119.929 99.9457 119.876 98.7393 118.607C97.533 117.337 97.605 115.325 98.8714 114.122C99.3639 113.659 110.939 102.86 122.712 104.141C128.068 104.706 132.519 107.588 135.964 112.691C138.756 116.849 140.493 123.926 132.862 133.998C128.713 139.476 123.632 143.378 123.421 143.544C122.077 144.58 120.181 144.382 119.091 143.129Z" fill="#9BABCC"/>
</g>
<defs>
<clipPath id="clip0_856_572">
<rect width="61.6264" height="41.8594" fill="white" transform="translate(42.8467 194) rotate(26.759)"/>
</clipPath>
<clipPath id="clip1_856_572">
<rect width="47" height="54" fill="white" transform="translate(0 14.1235) rotate(-17.4876)"/>
</clipPath>
<clipPath id="clip2_856_572">
<rect width="38.3875" height="32.9036" fill="white" transform="translate(120.817 95) rotate(48.9588)"/>
</clipPath>
</defs>
</svg>
