<svg width="147" height="233" viewBox="0 0 147 233" fill="none" xmlns="http://www.w3.org/2000/svg">
<g clip-path="url(#clip0_856_573)">
<path d="M7.17814 193.514C7.17814 193.514 -1.25748 200.309 0.157187 219.411C1.57186 238.514 31.6467 236.151 34.476 220.839C37.253 205.527 29.6033 175.692 7.17814 193.514Z" fill="#9BABCC"/>
</g>
<g clip-path="url(#clip1_856_573)">
<path d="M146.789 82.3805C146.661 81.3208 145.334 72.2312 132.36 75.8432C119.387 79.4551 123.706 95.5223 130.627 97.3432C137.547 99.1566 148.674 98.1491 146.789 82.3805Z" fill="#668BD3"/>
</g>
<g clip-path="url(#clip2_856_573)">
<path d="M84.742 58.0543C84.3529 58.6325 83.9446 59.2373 83.5148 59.8704C83.4584 59.1063 83.4066 58.3776 83.3581 57.6815C83.319 57.1193 83.2817 56.5759 83.2458 56.0511C83.1197 54.2088 83.0091 52.594 82.8836 51.1872C82.5655 47.619 82.1265 44.9068 80.762 42.5459C79.3974 40.185 77.2665 38.451 74.3344 36.3946C73.1804 35.5852 71.8394 34.6851 70.3099 33.6585C69.8708 33.3637 69.4161 33.0585 68.9458 32.742C68.3696 32.3543 67.7669 31.9475 67.1362 31.5193C67.8967 31.4636 68.6223 31.4126 69.3154 31.3647C69.8662 31.3266 70.3988 31.2904 70.9138 31.2555C72.7693 31.1294 74.3946 31.019 75.8099 30.8932C79.3792 30.5761 82.092 30.1367 84.4547 28.7711C86.8165 27.406 88.553 25.2744 90.613 22.3415C91.4231 21.1881 92.3239 19.8482 93.3511 18.3202C93.6472 17.8799 93.9537 17.4239 94.2716 16.9523C94.6617 16.3734 95.0711 15.7679 95.5021 15.134C95.5579 15.8978 95.6092 16.6263 95.6572 17.3221C95.6955 17.8772 95.7319 18.4138 95.7671 18.9325C95.8927 20.7836 96.0028 22.4057 96.128 23.8186C96.4447 27.3892 96.8834 30.104 98.2482 32.468C99.613 34.8319 101.745 36.5693 104.679 38.6288C105.84 39.4437 107.189 40.3499 108.729 41.3842C109.161 41.6741 109.608 41.974 110.069 42.2848C110.645 42.6723 111.247 43.0788 111.877 43.5067C111.116 43.5621 110.389 43.6129 109.695 43.6605C109.129 43.6993 108.582 43.7362 108.054 43.7717C106.215 43.8957 104.602 44.0043 103.197 44.128C99.6269 44.4421 96.9125 44.8778 94.5499 46.2404C92.1868 47.6032 90.4518 49.7339 88.3949 52.6658C87.5839 53.8218 86.682 55.1654 85.653 56.6983C85.3599 57.1349 85.0565 57.5869 84.742 58.0543Z" stroke="#728ABC" stroke-width="5"/>
</g>
<defs>
<clipPath id="clip0_856_573">
<rect width="35" height="45" fill="white" transform="matrix(1 0 0 -1 0 233)"/>
</clipPath>
<clipPath id="clip1_856_573">
<rect width="23" height="23" fill="white" transform="translate(124 75)"/>
</clipPath>
<clipPath id="clip2_856_573">
<rect width="61.1122" height="61.1122" fill="white" transform="translate(67.8936 0.0766602) rotate(15)"/>
</clipPath>
</defs>
</svg>
