<svg width="229" height="231" viewBox="0 0 229 231" fill="none" xmlns="http://www.w3.org/2000/svg">
<g clip-path="url(#clip0_843_319)">
<path d="M32.0393 181.623C33.0765 181.623 33.768 182.314 33.768 183.465C33.768 184.501 33.0765 185.306 32.0393 185.306H18.6704V197.277C18.6704 198.428 17.9789 199.118 16.8264 199.118C15.7891 199.118 14.9824 198.428 14.9824 197.277V185.306H1.84399C0.691495 185.306 0 184.616 0 183.465C0 182.429 0.691495 181.623 1.84399 181.623H32.0393ZM2.42023 167.466V157.108C2.42023 155.957 3.11173 155.151 4.26422 155.151C5.41671 155.151 6.1082 155.957 6.1082 157.108V161.942H15.0976V157.108C15.0976 155.957 15.7891 155.151 16.9416 155.151C18.0941 155.151 18.7856 155.957 18.7856 157.108V161.942H27.6598V157.108C27.6598 155.957 28.3513 155.151 29.5038 155.151C30.6563 155.151 31.3478 155.957 31.3478 157.108V172.876C31.3478 174.027 30.7715 174.718 29.7343 174.833C24.2023 175.868 15.4434 176.214 9.33518 175.523C4.95571 174.948 2.42023 172.185 2.42023 167.466ZM15.0976 165.28H6.1082V167.351C6.1082 170.229 6.91495 171.61 9.68093 171.955C11.2944 172.185 13.1384 172.3 15.0976 172.3V165.28ZM27.6598 165.28H18.6704V172.3C21.8973 172.3 25.1243 171.955 27.6598 171.61V165.28Z" fill="#253046"/>
<path d="M60.3905 191.637C60.3905 192.673 59.8143 193.363 58.777 193.593C55.6653 194.399 50.8249 194.859 46.0996 194.629C41.2592 194.284 38.839 192.097 38.839 187.608V174.027C38.839 172.876 39.5304 172.185 40.6829 172.185H54.9738C55.2043 169.423 55.3196 166.315 55.2043 164.013C55.0891 161.827 54.2823 160.445 52.0926 160.1C48.6351 159.64 44.2557 159.87 40.9134 160.445C39.6457 160.676 38.9542 159.985 38.839 158.834C38.839 157.683 39.5304 156.993 40.5677 156.762C44.2557 156.187 49.2114 155.957 53.2451 156.532C56.9331 157.108 58.6618 159.755 58.8923 164.013C59.1228 167.121 58.8923 170.919 58.5465 174.027C58.4313 175.063 57.8551 175.753 56.7026 175.753H42.5269V187.723C42.5269 189.68 43.2184 190.716 46.4454 190.946C50.4791 191.176 54.6281 190.946 58.0856 190.025C59.5838 189.565 60.3905 190.371 60.3905 191.637ZM69.9562 155.611V196.356C69.9562 197.622 69.2647 198.312 68.1122 198.312C66.9597 198.312 66.2682 197.622 66.2682 196.356V155.611C66.2682 154.345 66.9597 153.655 68.1122 153.655C69.2647 153.54 69.9562 154.345 69.9562 155.611Z" fill="#253046"/>
<path d="M89.3181 161.596C89.3181 168.042 86.2063 173.682 79.1761 176.674C78.1389 177.135 77.2169 177.019 76.6407 176.329C75.7187 175.408 76.0644 174.027 77.2169 173.567C83.2099 171.149 85.6301 166.776 85.6301 161.712V157.453C85.6301 156.302 86.3216 155.496 87.4741 155.496C88.6266 155.496 89.3181 156.302 89.3181 157.453V161.596ZM107.297 181.278C108.449 181.278 109.141 182.084 109.141 183.235V195.435C109.141 196.586 108.565 197.277 107.412 197.392H107.182C101.534 198.197 94.5043 198.428 88.7418 197.967C83.6709 197.622 81.4811 195.435 81.4811 190.946V183.235C81.4811 182.084 82.1726 181.278 83.3251 181.278H107.297ZM105.453 194.054V184.846H85.1691V191.176C85.1691 193.133 85.8606 194.054 89.2028 194.399C93.928 194.859 100.497 194.744 105.453 194.054ZM90.1248 171.265C89.2028 170.229 89.6638 168.963 90.5858 168.387C91.3926 167.927 92.084 168.042 93.006 169.078C94.6195 170.804 96.5788 172.3 98.999 173.567C99.921 174.027 100.151 175.408 99.3447 176.214C98.6532 177.135 97.5008 177.019 96.694 176.559C94.389 175.293 92.1993 173.682 90.1248 171.265ZM109.141 155.611V176.904C109.141 178.055 108.449 178.861 107.297 178.861C106.144 178.861 105.453 178.055 105.453 176.904V155.611C105.453 154.345 106.144 153.655 107.297 153.655C108.449 153.54 109.141 154.345 109.141 155.611Z" fill="#253046"/>
<path d="M147.173 175.523C148.21 175.523 148.902 176.214 148.902 177.365C148.902 178.401 148.21 179.206 147.173 179.206H116.978C115.825 179.206 115.134 178.516 115.134 177.365C115.134 176.329 115.825 175.523 116.978 175.523H147.173ZM118.246 156.762C118.246 155.726 118.937 154.921 120.09 154.921C121.242 154.921 121.934 155.726 121.934 156.762V162.057C121.934 165.164 123.317 166.661 127.12 167.006C132.306 167.581 139.797 167.121 144.638 166.085C145.905 165.855 146.827 166.546 146.827 167.697C146.943 168.732 146.366 169.423 145.214 169.653C139.912 170.689 132.767 171.034 126.889 170.574C121.127 170.114 118.361 167.006 118.361 162.057V156.762H118.246ZM118.476 185.306C118.476 184.04 119.168 183.35 120.32 183.35C121.473 183.35 122.164 184.04 122.164 185.306V188.414C122.164 191.982 123.086 193.363 126.544 193.824C132.536 194.629 140.95 193.939 145.79 193.018C146.943 192.788 147.98 193.478 147.98 194.629C148.095 195.665 147.519 196.471 146.366 196.701C141.411 197.737 132.306 198.197 125.967 197.507C120.896 196.931 118.476 194.054 118.476 188.874V185.306Z" fill="#253046"/>
<path d="M165.037 168.502V171.61C165.037 181.278 162.501 188.99 155.817 194.629C154.895 195.435 153.973 195.665 153.051 195.205C152.014 194.629 151.783 193.248 152.705 192.327C158.929 187.263 161.349 180.472 161.349 171.725V168.502H154.203C153.166 168.502 152.359 167.812 152.359 166.661C152.359 165.625 153.051 164.819 154.203 164.819H173.68C174.718 164.819 175.524 165.51 175.524 166.661C175.524 167.812 174.833 168.502 173.68 168.502H165.037ZM156.047 155.496C156.393 154.345 157.43 153.885 158.583 154.46C161.81 155.842 165.728 156.532 169.877 156.532C170.914 156.532 171.721 157.223 171.721 158.374C171.721 159.525 170.914 160.215 169.877 160.215C165.613 160.215 161.349 159.64 157.776 158.143C156.278 157.338 155.817 156.647 156.047 155.496ZM175.063 194.859C174.257 195.665 172.989 195.55 172.182 194.859C169.647 192.558 167.226 189.105 165.728 185.422C165.152 184.271 165.959 183.12 166.881 182.889C167.918 182.659 168.725 183.004 169.301 184.155C170.453 186.803 172.528 190.025 175.063 192.212C175.755 192.903 175.755 194.169 175.063 194.859ZM185.09 155.611V196.356C185.09 197.622 184.399 198.312 183.246 198.312C182.094 198.312 181.402 197.622 181.402 196.356V155.611C181.402 154.345 182.094 153.655 183.246 153.655C184.399 153.54 185.09 154.345 185.09 155.611Z" fill="#253046"/>
<path d="M216.092 192.903C217.129 192.903 217.821 193.593 217.821 194.744C217.821 195.895 217.129 196.586 216.092 196.586H192.927C191.775 196.586 191.083 195.895 191.083 194.744C191.083 193.708 191.775 192.903 192.927 192.903H199.611V176.789C199.611 175.753 200.303 174.948 201.455 174.948C202.608 174.948 203.299 175.638 203.299 176.789V192.903H216.092ZM193.964 158.834C193.964 157.798 194.656 156.992 195.693 156.762C199.266 156.302 204.567 156.072 207.448 156.417C212.058 156.992 214.248 159.985 214.133 164.934C214.133 170.229 213.557 175.293 212.404 180.242C212.174 181.393 211.252 181.969 210.214 181.738C209.062 181.508 208.601 180.702 208.831 179.436C209.753 174.833 210.33 170.229 210.445 164.934C210.445 162.172 209.523 160.33 206.757 159.985C203.991 159.64 199.266 159.985 196.039 160.33C194.886 160.676 194.08 159.985 193.964 158.834ZM227.502 172.876C228.424 172.876 229 173.566 229 174.717C229 175.753 228.424 176.559 227.502 176.559H223.583V196.356C223.583 197.622 222.892 198.312 221.739 198.312C220.587 198.312 219.895 197.622 219.895 196.356V155.611C219.895 154.345 220.587 153.655 221.739 153.655C222.892 153.655 223.583 154.345 223.583 155.611V172.991H227.502V172.876Z" fill="#253046"/>
<path d="M60.16 79.9925C59.0076 79.9925 57.8551 79.1868 57.3941 78.0359C56.9331 76.6547 45.8692 44.8879 54.0518 21.8685C57.5093 12.0852 63.7328 5.40956 71.9155 2.64723C81.1354 -0.575488 92.4298 1.38116 102.687 7.8266C115.825 16.1136 127.581 17.725 140.95 12.8909C142.448 12.3154 144.177 13.1211 144.753 14.6173C145.329 16.1136 144.522 17.8401 143.024 18.4155C128.042 23.8251 114.212 22.0987 99.5752 12.8909C90.9316 7.48131 81.3659 5.75486 73.8747 8.28699C67.3055 10.5889 62.5803 15.7683 59.699 23.9402C52.2079 45.1181 62.926 75.9641 63.0413 76.1943C63.6175 77.6906 62.8108 79.417 61.1973 79.9925C60.8515 79.8774 60.5058 79.9925 60.16 79.9925Z" fill="#253046"/>
<path d="M60.621 81.3737C59.3533 81.3737 58.2008 80.568 57.7398 79.1868L57.3941 77.6906C56.9331 76.0792 57.8551 74.4678 59.4685 74.1225C61.082 73.6622 62.6955 74.5829 63.0413 76.1943L63.5023 77.6906C63.9633 79.3019 63.0413 80.9133 61.4278 81.2586C61.1973 81.3737 60.8515 81.3737 60.621 81.3737Z" fill="#253046"/>
<path d="M90.2401 127.067C81.9421 127.067 74.4509 119.701 67.997 105.199C65.0005 98.293 58.2008 93.9193 50.7096 93.9193H30.7715C29.158 93.9193 27.8903 92.6532 27.8903 91.0419C27.8903 89.4305 29.158 88.1644 30.7715 88.1644H50.7096C60.5058 88.1644 69.38 93.9193 73.4137 103.012C77.1017 111.414 83.0946 121.428 90.2401 121.428C100.382 121.428 102.917 107.155 104.761 91.3872C105.107 88.1644 105.453 85.1719 105.914 82.7549C106.144 81.3737 106.375 79.9925 106.605 78.4963C109.026 63.8789 112.598 41.8954 142.909 36.0254C144.868 35.6801 146.827 36.1405 148.326 37.4066C149.824 38.6727 150.631 40.5142 150.631 42.3558C150.515 47.9955 149.363 58.6996 142.448 66.6413C133.113 77.3453 121.242 77.2302 120.781 77.2302C119.168 77.2302 117.9 75.849 117.9 74.2377C117.9 72.6263 119.168 71.3602 120.896 71.3602C121.357 71.3602 130.577 71.2451 138.068 62.728C143.831 56.1674 144.753 47.0747 144.868 42.1256C144.868 42.0105 144.753 41.7803 144.638 41.6652C144.522 41.5501 144.407 41.435 144.061 41.5501C117.9 46.6144 114.788 65.3752 112.483 79.1869C112.253 80.6831 112.022 82.1794 111.676 83.5605C111.215 85.8625 110.87 88.7399 110.524 91.8475C108.91 105.889 106.375 127.067 90.2401 127.067Z" fill="#253046"/>
<path d="M50.2486 230.77H44.9472V212.469H50.2486C53.9366 212.469 55.7806 214.426 55.7806 217.649V225.706C55.6653 228.813 53.9366 230.77 50.2486 230.77ZM46.2149 229.619H50.2486C53.1298 229.619 54.5128 228.238 54.5128 225.475V217.649C54.5128 214.886 53.1298 213.505 50.2486 213.505H46.2149V229.619Z" fill="#253046"/>
<path d="M58.6618 212.469H67.4207V213.62H59.9295V220.756H66.7292V221.907H59.9295V229.619H67.8817V230.77H58.6618V212.469Z" fill="#253046"/>
<path d="M72.3764 212.469L79.6371 229.158L79.5219 222.022V212.354H80.6744V230.655H78.9457L71.8002 214.081L71.9155 221.792V230.77H70.6477V212.469H72.3764Z" fill="#253046"/>
<path d="M92.6603 213.62H88.1656V230.885H86.8978V213.62H82.6336V212.469H92.6603V213.62Z" fill="#253046"/>
<path d="M103.839 230.77L102.456 225.706H96.1178L94.7348 230.77H93.467L98.7685 212.354H99.921L105.222 230.77H103.839ZM102.111 224.555L101.073 220.756L99.2295 214.081L97.3855 220.871L96.3483 224.555H102.111Z" fill="#253046"/>
<path d="M116.402 230.77H107.182V212.469H108.449V229.619H116.402V230.77Z" fill="#253046"/>
<path d="M133.919 225.475H135.187C135.187 228.698 133.113 231 129.655 231C126.313 231 124.123 229.158 124.123 225.821V217.303C124.123 213.966 126.198 212.124 129.54 212.124C132.997 212.124 134.841 214.196 134.841 217.073H133.689C133.574 214.541 132.306 213.275 129.655 213.275C127.005 213.275 125.506 214.656 125.506 217.418V225.705C125.506 228.468 127.12 229.849 129.771 229.849C132.306 229.849 133.804 228.238 133.919 225.475Z" fill="#253046"/>
<path d="M147.058 230.77H137.838V212.469H139.106V229.619H147.058V230.77Z" fill="#253046"/>
<path d="M150.861 230.77H149.593V212.469H150.861V230.77Z" fill="#253046"/>
<path d="M156.047 212.469L163.308 229.158L163.193 222.022V212.354H164.46V230.655H162.732L155.471 213.966L155.586 221.677V230.655H154.319V212.354H156.047V212.469Z" fill="#253046"/>
<path d="M169.07 230.77H167.803V212.469H169.07V230.77Z" fill="#253046"/>
<path d="M182.094 225.475H183.361C183.361 228.698 181.287 231 177.829 231C174.487 231 172.297 229.158 172.297 225.821V217.303C172.297 213.966 174.372 212.124 177.714 212.124C181.172 212.124 183.016 214.196 183.016 217.073H181.748C181.633 214.541 180.365 213.275 177.714 213.275C175.063 213.275 173.565 214.656 173.565 217.418V225.705C173.565 228.468 175.179 229.849 177.829 229.849C180.48 229.849 181.978 228.238 182.094 225.475Z" fill="#253046"/>
<path d="M170.338 81.9492C170.108 81.9492 169.877 81.9492 169.531 81.8341C167.918 81.3737 166.996 79.7624 167.457 78.2661C167.803 76.7699 168.148 75.6189 168.264 74.9283C170.338 66.296 176.677 40.0539 169.416 20.6024C166.996 14.0419 162.617 9.55311 156.393 7.36626C146.943 4.02844 134.38 6.90587 126.889 11.3947C125.506 12.2003 123.662 11.74 122.856 10.3588C122.049 8.97762 122.51 7.13606 123.893 6.33038C132.306 1.26611 146.597 -2.3019 158.352 1.84159C166.074 4.60393 171.836 10.3588 174.948 18.5307C182.785 39.7086 176.216 67.2168 174.026 76.3095C173.796 77.1151 173.565 78.2661 173.104 79.7624C172.874 81.0285 171.606 81.9492 170.338 81.9492Z" fill="#253046"/>
<path d="M139.682 127.067C123.547 127.067 121.012 106.35 119.629 94.0343C119.398 92.423 120.551 90.9267 122.164 90.8116C123.778 90.5814 125.276 91.7324 125.391 93.3438C127.005 106.81 129.54 121.197 139.682 121.197C146.827 121.197 152.82 111.184 156.508 102.782C160.542 93.8042 169.416 87.9342 179.212 87.9342H199.15C200.764 87.9342 202.032 89.2003 202.032 90.8116C202.032 92.423 200.764 93.6891 199.15 93.6891H179.212C171.721 93.6891 164.921 98.1778 161.925 104.969C155.471 119.701 147.98 127.067 139.682 127.067Z" fill="#253046"/>
</g>
<defs>
<clipPath id="clip0_843_319">
<rect width="229" height="231" fill="white"/>
</clipPath>
</defs>
</svg>
